<?xml version="1.0" standalone="no"?>
<!DOCTYPE svg PUBLIC "-//W3C//DTD SVG 1.1//EN" "http://www.w3.org/Graphics/SVG/1.1/DTD/svg11.dtd" >
<svg xmlns="http://www.w3.org/2000/svg" xmlns:xlink="http://www.w3.org/1999/xlink" version="1.1">
<metadata>
Created by FontForge 20170924 at Fri Apr  5 02:57:53 2013
 By www-data
Copyright (c) 2013 by CloutierFontes. All rights reserved.
</metadata>
<defs>
<font id="CFSpaceship-Regular" horiz-adv-x="1000" >
  <font-face 
    font-family="CF Spaceship"
    font-weight="400"
    font-stretch="normal"
    units-per-em="1000"
    panose-1="0 0 0 0 0 0 0 0 0 0"
    ascent="800"
    descent="-200"
    x-height="751"
    cap-height="752"
    bbox="18 -15 924 800"
    underline-thickness="50"
    underline-position="-100"
    unicode-range="U+000D-007A"
  />
<missing-glyph horiz-adv-x="500" 
d="M63 0v800h375v-800h-375zM125 63h250v675h-250v-675z" />
    <glyph glyph-name=".notdef" horiz-adv-x="500" 
d="M63 0v800h375v-800h-375zM125 63h250v675h-250v-675z" />
    <glyph glyph-name="NULL" horiz-adv-x="0" 
 />
    <glyph glyph-name="NULL" horiz-adv-x="0" 
 />
    <glyph glyph-name="nonmarkingreturn" unicode="&#xd;" horiz-adv-x="250" 
 />
    <glyph glyph-name="space" unicode=" " horiz-adv-x="549" 
 />
    <glyph glyph-name="hyphen" unicode="-" horiz-adv-x="549" 
d="M472 360h-395q-9 0 -15 6.5t-6 14.5q0 9 6 15.5t15 6.5h395q9 0 15 -6.5t6 -15.5q0 -8 -6 -14.5t-15 -6.5z" />
    <glyph glyph-name="period" unicode="." 
 />
    <glyph glyph-name="slash" unicode="/" 
 />
    <glyph glyph-name="zero" unicode="0" 
 />
    <glyph glyph-name="one" unicode="1" 
 />
    <glyph glyph-name="two" unicode="2" 
 />
    <glyph glyph-name="three" unicode="3" 
 />
    <glyph glyph-name="four" unicode="4" 
 />
    <glyph glyph-name="five" unicode="5" 
 />
    <glyph glyph-name="six" unicode="6" 
 />
    <glyph glyph-name="seven" unicode="7" 
 />
    <glyph glyph-name="eight" unicode="8" 
 />
    <glyph glyph-name="nine" unicode="9" 
 />
    <glyph glyph-name="colon" unicode=":" 
 />
    <glyph glyph-name="semicolon" unicode=";" 
 />
    <glyph glyph-name="less" unicode="&#x3c;" 
 />
    <glyph glyph-name="equal" unicode="=" 
 />
    <glyph glyph-name="greater" unicode="&#x3e;" 
 />
    <glyph glyph-name="question" unicode="?" 
 />
    <glyph glyph-name="at" unicode="@" 
 />
    <glyph glyph-name="A" unicode="A" horiz-adv-x="556" 
d="M70 -13q-9 0 -15.5 6.5t-6.5 15.5v512q0 9 6.5 15.5t15.5 6.5t15.5 -6.5t6.5 -15.5v-512q0 -9 -6.5 -15.5t-15.5 -6.5zM486 -13q-9 0 -15.5 6.5t-6.5 15.5v512q0 9 6.5 15.5t15.5 6.5t15.5 -6.5t6.5 -15.5v-512q0 -9 -6.5 -15.5t-15.5 -6.5zM486 496q-9 0 -15.5 6.5
t-6.5 15.5q0 39 -14.5 74t-40 61t-59 41t-72.5 15t-72.5 -15t-59 -41t-40 -61t-14.5 -74q0 -9 -6.5 -15.5t-15.5 -6.5t-15.5 6.5t-6.5 15.5q0 48 18 91t49.5 74.5t73 50t89.5 18.5t89.5 -18.5t73 -50t49.5 -74.5t18 -91q0 -9 -6.5 -15.5t-15.5 -6.5zM481 308h-403
q-9 0 -15.5 6.5t-6.5 15.5t6.5 15.5t15.5 6.5h403q9 0 15.5 -6.5t6.5 -15.5t-6.5 -15.5t-15.5 -6.5z" />
    <glyph glyph-name="B" unicode="B" horiz-adv-x="551" 
d="M307 708h-240q-9 0 -15.5 6.5t-6.5 15.5q0 10 6.5 16t15.5 6h240q10 0 16.5 -6t6.5 -16q0 -9 -6.5 -15.5t-16.5 -6.5zM307 348h-240q-9 0 -15.5 6.5t-6.5 15.5q0 10 6.5 16.5t15.5 6.5h240q10 0 16.5 -6.5t6.5 -16.5q0 -9 -6.5 -15.5t-16.5 -6.5zM304 348q-9 0 -15.5 6.5
t-6.5 15.5q0 10 6.5 16.5t15.5 6.5q33 0 61.5 12.5t50 33.5t34 49.5t12.5 61.5t-12.5 61.5t-34 50t-50 34t-61.5 12.5q-9 0 -15.5 6.5t-6.5 15.5q0 10 6.5 16t15.5 6q42 0 79 -16t64 -43t43 -64t16 -79t-16 -78.5t-43 -64t-64 -43.5t-79 -16zM307 347h-240q-9 0 -15.5 6.5
t-6.5 16.5q0 9 6.5 15.5t15.5 6.5h240q10 0 16.5 -6.5t6.5 -15.5q0 -10 -6.5 -16.5t-16.5 -6.5zM307 -13h-240q-9 0 -15.5 6.5t-6.5 16.5q0 9 6.5 15.5t15.5 6.5h240q10 0 16.5 -6.5t6.5 -15.5q0 -10 -6.5 -16.5t-16.5 -6.5zM304 -13q-9 0 -15.5 6.5t-6.5 16.5q0 9 6.5 15.5
t15.5 6.5q33 0 61.5 12.5t50 34t34 50t12.5 61.5t-12.5 61.5t-34 49.5t-50 33.5t-61.5 12.5q-9 0 -15.5 6.5t-6.5 16.5q0 9 6.5 15.5t15.5 6.5q42 0 79 -16t64 -43.5t43 -64t16 -78.5t-16 -79t-43 -64.5t-64 -43.5t-79 -16z" />
    <glyph glyph-name="C" unicode="C" horiz-adv-x="525" 
d="M292 -13q-57 0 -106.5 30t-87 82t-59 122t-21.5 149t21.5 148.5t59 121.5t87 82t106.5 30h1q55 0 104.5 -28t88.5 -82q5 -8 4 -17t-9 -14t-17 -4t-14 9q-32 45 -72.5 68.5t-84.5 23.5h-1q-47 0 -89 -26.5t-73.5 -72.5t-49.5 -107.5t-18 -131.5t18 -131.5t49.5 -107.5
t73.5 -72.5t89 -26.5q51 0 96 30t78 87q5 8 13.5 10.5t16.5 -2.5q18 -12 8 -31q-39 -66 -94 -102.5t-118 -36.5z" />
    <glyph glyph-name="D" unicode="D" horiz-adv-x="539" 
d="M64 -13q-9 0 -15.5 6.5t-6.5 15.5v722q0 9 6.5 15t15.5 6t15.5 -6t6.5 -15v-722q0 -9 -6.5 -15.5t-15.5 -6.5zM204 -13q-9 0 -15.5 6.5t-6.5 15.5q0 10 6.5 16t15.5 6q51 0 96.5 26.5t79.5 72.5t53.5 107.5t19.5 131.5t-19.5 131.5t-53.5 107.5t-79.5 72.5t-96.5 26.5
q-9 0 -15.5 6.5t-6.5 15.5t6.5 15.5t15.5 6.5q61 0 114 -30t93 -82t63 -121.5t23 -148.5t-23 -148.5t-63 -121.5t-93 -82t-114 -30zM218 708h-154q-9 0 -15.5 6.5t-6.5 15.5t6.5 15.5t15.5 6.5h154q9 0 15.5 -6.5t6.5 -15.5t-6.5 -15.5t-15.5 -6.5zM218 -13h-154
q-9 0 -15.5 6.5t-6.5 15.5q0 10 6.5 16t15.5 6h154q9 0 15.5 -6t6.5 -16q0 -9 -6.5 -15.5t-15.5 -6.5z" />
    <glyph glyph-name="E" unicode="E" horiz-adv-x="498" 
d="M65 -12q-9 0 -15.5 6t-6.5 16v720q0 10 6.5 16.5t15.5 6.5h371q10 0 16 -6.5t6 -16.5q0 -9 -6 -15.5t-16 -6.5h-349v-698q0 -22 -22 -22zM338 348h-257q-9 0 -15.5 6.5t-6.5 15.5t6.5 15.5t15.5 6.5h257q9 0 15.5 -6.5t6.5 -15.5t-6.5 -15.5t-15.5 -6.5zM436 -12h-371
q-9 0 -15.5 6t-6.5 16q0 9 6.5 15.5t15.5 6.5h371q10 0 16 -6.5t6 -15.5q0 -22 -22 -22z" />
    <glyph glyph-name="F" unicode="F" horiz-adv-x="494" 
d="M60 -12q-9 0 -15.5 6t-6.5 16v720q0 10 6.5 16.5t15.5 6.5h371q10 0 16.5 -6.5t6.5 -16.5q0 -9 -6.5 -15.5t-16.5 -6.5h-348v-698q0 -10 -6.5 -16t-16.5 -6zM345 348h-282q-9 0 -15.5 6.5t-6.5 15.5t6.5 15.5t15.5 6.5h282q9 0 15.5 -6.5t6.5 -15.5t-6.5 -15.5
t-15.5 -6.5z" />
    <glyph glyph-name="G" unicode="G" horiz-adv-x="620" 
d="M310 -12q-57 0 -107.5 30t-88 82t-59.5 121.5t-22 148.5t22 149t59.5 122t88 82t107.5 30q67 0 126.5 -42t98.5 -117q5 -8 1.5 -16.5t-11.5 -13.5t-16.5 -2t-13.5 11q-33 64 -82 99.5t-103 35.5q-48 0 -90.5 -26.5t-74 -72.5t-50 -107.5t-18.5 -131.5t18.5 -131.5
t50 -107.5t74 -72.5t90.5 -26.5q38 0 73.5 18t65 50t51.5 76.5t33 97.5q2 9 9.5 14.5t16.5 3.5t14.5 -10t3.5 -17q-13 -61 -39 -112t-61 -87.5t-78 -57t-89 -20.5zM555 248h-5q-9 2 -14 9.5t-3 16.5q7 36 9 74l-284 -3q-9 0 -15.5 6.5t-6.5 15.5q-1 9 5.5 15.5t16.5 6.5
l307 3q9 0 15 -6q7 -6 7 -16q0 -56 -10 -105q-5 -17 -22 -17z" />
    <glyph glyph-name="H" unicode="H" horiz-adv-x="557" 
d="M459 349h-370q-9 0 -15.5 6.5t-6.5 15.5t6.5 15.5t15.5 6.5h370q9 0 15.5 -6.5t6.5 -15.5t-6.5 -15.5t-15.5 -6.5zM482 -13q-9 0 -15.5 6.5t-6.5 16.5v720q0 10 6.5 16t15.5 6t15.5 -6t6.5 -16v-720q0 -10 -6.5 -16.5t-15.5 -6.5zM75 -13q-10 0 -16 6.5t-6 16.5v720
q0 22 22 22q9 0 15.5 -6t6.5 -16v-720q0 -10 -6.5 -16.5t-15.5 -6.5z" />
    <glyph glyph-name="I" unicode="I" horiz-adv-x="180" 
d="M90 -13q-9 0 -15.5 6.5t-6.5 16.5v720q0 10 6.5 16t15.5 6t15.5 -6t6.5 -16v-720q0 -10 -6.5 -16.5t-15.5 -6.5z" />
    <glyph glyph-name="J" unicode="J" horiz-adv-x="565" 
d="M493 238q-9 0 -15.5 6t-6.5 15v472q0 9 6.5 15.5t15.5 6.5t15.5 -6.5t6.5 -15.5v-472q0 -9 -6.5 -15t-15.5 -6zM282 -13q-48 0 -90.5 21.5t-74 59t-49.5 87t-18 106.5q0 9 6.5 15.5t15.5 6.5t15.5 -6.5t6.5 -15.5q0 -48 15 -89.5t40.5 -73t59.5 -49.5t73 -18t73.5 18
t60 49.5t40.5 73t15 89.5q0 9 6.5 15.5t15.5 6.5t15 -6.5t6 -15.5q0 -57 -18.5 -106.5t-50 -87t-73.5 -59t-90 -21.5z" />
    <glyph glyph-name="K" unicode="K" horiz-adv-x="544" 
d="M58 -13q-9 0 -15.5 6.5t-6.5 15.5v722q0 9 6.5 15t15.5 6t15.5 -6t6.5 -15v-722q0 -9 -6.5 -15.5t-15.5 -6.5zM454 -13q-11 0 -18 9l-280 364q-5 7 -4.5 16t8.5 14q8 6 16.5 5t14.5 -9l280 -363q6 -8 5 -17t-9 -14q-7 -5 -13 -5zM172 356q-4 0 -6 1q-9 2 -13 10t-2 17
q21 79 57 147t83 116q49 51 100.5 71.5t100.5 6.5q9 -2 13.5 -10t2.5 -16q-2 -9 -10 -13.5t-17 -2.5q-76 20 -159 -66q-43 -45 -76 -107.5t-53 -137.5q-5 -16 -21 -16z" />
    <glyph glyph-name="L" unicode="L" horiz-adv-x="494" 
d="M428 -15h-368q-9 0 -15.5 6t-6.5 16q0 9 6.5 15t15.5 6h368q9 0 15.5 -6t6.5 -15q0 -10 -6.5 -16t-15.5 -6zM60 -15q-9 0 -15.5 6.5t-6.5 15.5v721q0 9 6.5 15.5t15.5 6.5t15.5 -6.5t6.5 -15.5v-721q0 -9 -6.5 -15.5t-15.5 -6.5z" />
    <glyph glyph-name="M" unicode="M" horiz-adv-x="956" 
d="M59 -13q-9 0 -15.5 6.5t-6.5 15.5v506q0 9 6.5 15.5t15.5 6.5t15.5 -6.5t6.5 -15.5v-506q0 -9 -6.5 -15.5t-15.5 -6.5zM480 -13q-9 0 -15.5 6.5t-6.5 15.5v411q0 10 6.5 16t15.5 6t15.5 -6t6.5 -16v-411q0 -9 -6.5 -15.5t-15.5 -6.5zM481 -13q-9 0 -15.5 6.5t-6.5 15.5
v522q0 9 6.5 15.5t15.5 6.5t15.5 -6.5t6.5 -15.5v-522q0 -9 -6.5 -15.5t-15.5 -6.5zM481 498q-9 0 -15 6.5t-6 15.5q0 39 -15 73.5t-40.5 60t-60.5 40.5t-74 15t-73.5 -15t-60 -40.5t-40.5 -60t-15 -73.5q0 -9 -6.5 -15.5t-15.5 -6.5t-15.5 6.5t-6.5 15.5q0 48 18.5 90
t50 73.5t74 50t90.5 18.5t90.5 -18.5t74 -50t50 -73.5t18.5 -90q0 -9 -6.5 -15.5t-15.5 -6.5zM483 -11q-9 0 -15.5 6t-6.5 15v510q0 9 6.5 15.5t15.5 6.5t15.5 -6.5t6.5 -15.5v-510q0 -9 -6.5 -15t-15.5 -6zM898 -11q-9 0 -15.5 6t-6.5 15v510q0 9 6.5 15.5t15.5 6.5
t15.5 -6.5t6.5 -15.5v-510q0 -9 -6.5 -15t-15.5 -6zM898 495q-9 0 -15.5 6.5t-6.5 15.5q0 39 -14.5 73.5t-39.5 60.5t-59 41t-72 15q-39 0 -72.5 -15t-59 -41t-40 -60.5t-14.5 -73.5q0 -9 -6.5 -15.5t-15.5 -6.5t-15.5 6.5t-6.5 15.5q0 48 18 90.5t49.5 74t73 50t89.5 18.5
q47 0 89 -18.5t73 -50t49 -74t18 -90.5q0 -9 -6.5 -15.5t-15.5 -6.5z" />
    <glyph glyph-name="N" unicode="N" horiz-adv-x="550" 
d="M64 -13q-9 0 -15.5 6.5t-6.5 15.5v512q0 9 6.5 15.5t15.5 6.5t15.5 -6.5t6.5 -15.5v-512q0 -9 -6.5 -15.5t-15.5 -6.5zM480 -13q-9 0 -15.5 6.5t-6.5 15.5v512q0 9 6.5 15.5t15.5 6.5t15.5 -6.5t6.5 -15.5v-512q0 -9 -6.5 -15.5t-15.5 -6.5zM480 496q-9 0 -15.5 6.5
t-6.5 15.5q0 39 -14.5 74t-40 61t-59.5 41t-72 15q-39 0 -72.5 -15t-59 -41t-40 -61t-14.5 -74q0 -9 -6.5 -15.5t-15.5 -6.5t-15.5 6.5t-6.5 15.5q0 48 18 91t49.5 75t73 50.5t89.5 18.5t89.5 -18.5t73 -50.5t49.5 -75t18 -91q0 -9 -6.5 -15.5t-15.5 -6.5z" />
    <glyph glyph-name="O" unicode="O" horiz-adv-x="632" 
d="M316 -12q-57 0 -107.5 30t-88 82t-59.5 121.5t-22 148.5t22 149t59.5 122t88 82t107.5 30t107.5 -30t88 -82t59.5 -122t22 -149t-22 -148.5t-59.5 -121.5t-88 -82t-107.5 -30zM316 708q-48 0 -90.5 -26.5t-74 -72.5t-50 -107.5t-18.5 -131.5t18.5 -131.5t50 -107.5
t74 -72.5t90.5 -26.5t90.5 26.5t74 72.5t50 107.5t18.5 131.5t-18.5 131.5t-50 107.5t-74 72.5t-90.5 26.5z" />
    <glyph glyph-name="P" unicode="P" horiz-adv-x="538" 
d="M301 708h-240q-9 0 -15.5 6.5t-6.5 15.5q0 10 6.5 16.5t15.5 6.5h240q9 0 15.5 -6.5t6.5 -16.5q0 -9 -6.5 -15.5t-15.5 -6.5zM301 349h-240q-9 0 -15.5 6.5t-6.5 15.5t6.5 15.5t15.5 6.5h240q9 0 15.5 -6.5t6.5 -15.5t-6.5 -15.5t-15.5 -6.5zM298 349q-10 0 -16.5 6.5
t-6.5 15.5t6.5 15.5t16.5 6.5q32 0 60.5 12.5t50 34t34 50t12.5 61.5q0 32 -12.5 60.5t-34 50t-50 34t-60.5 12.5q-10 0 -16.5 6.5t-6.5 15.5q0 10 6.5 16.5t16.5 6.5q42 0 78.5 -16t63.5 -43.5t43 -64t16 -78.5t-16 -79t-43 -64t-63.5 -43t-78.5 -16zM61 -13
q-9 0 -15.5 6.5t-6.5 16.5v361q0 9 6.5 15.5t15.5 6.5t15.5 -6.5t6.5 -15.5v-361q0 -10 -6.5 -16.5t-15.5 -6.5z" />
    <glyph glyph-name="Q" unicode="Q" horiz-adv-x="562" 
d="M240 6q-60 0 -114 35t-92 101q-5 8 -3 16t10 13t16.5 2.5t13.5 -10.5q32 -54 76.5 -84t92.5 -30q46 0 87 26t72 71t48.5 105t17.5 128t-17.5 128t-48.5 105t-72 71t-87 26q-43 0 -82.5 -23t-71.5 -67q-5 -8 -13.5 -9t-16.5 4q-7 5 -8 14t4 16q38 53 86 81t102 28
q55 0 104 -29.5t85.5 -80.5t57.5 -119t21 -145t-21 -145t-57.5 -118.5t-85.5 -80t-104 -29.5zM537 -12q-9 0 -15 6l-276 275q-6 7 -6 15.5t6 15.5q7 6 15.5 6t15.5 -6l275 -276q7 -6 7 -15t-7 -15q-6 -6 -15 -6z" />
    <glyph glyph-name="R" unicode="R" horiz-adv-x="546" 
d="M304 708h-239q-9 0 -15.5 6.5t-6.5 15.5q0 10 6.5 16t15.5 6h239q10 0 16.5 -6t6.5 -16q0 -9 -6.5 -15.5t-16.5 -6.5zM304 349h-45q-9 0 -15.5 6.5t-6.5 15.5q0 10 6.5 16.5t15.5 6.5h45q10 0 16.5 -6.5t6.5 -16.5q0 -9 -6.5 -15.5t-16.5 -6.5zM301 349q-9 0 -15.5 6.5
t-6.5 15.5q0 10 6.5 16.5t15.5 6.5q33 0 61.5 12.5t49.5 33.5t33.5 49.5t12.5 61.5t-12.5 61.5t-33.5 49.5t-49.5 33.5t-61.5 12.5q-9 0 -15.5 6.5t-6.5 15.5q0 10 6.5 16t15.5 6q42 0 78.5 -16t64 -43t43.5 -63.5t16 -78.5t-16 -78.5t-43.5 -64t-64 -43.5t-78.5 -16z
M458 -13q-12 0 -19 12l-199 362q-5 8 -2 16.5t11 13.5t16.5 2t13.5 -11l199 -362q5 -8 2 -16.5t-11 -13.5q-5 -3 -11 -3z" />
    <glyph glyph-name="S" unicode="S" horiz-adv-x="607" 
d="M303 -13q-55 0 -103.5 16t-84.5 43t-57 63.5t-21 77.5q0 10 6.5 16t15.5 6t15.5 -6t6.5 -16q0 -32 17.5 -60.5t47.5 -49.5t70.5 -33t86.5 -12t86.5 12t71 33t48 49.5t17.5 60.5q0 60 -55.5 101t-170.5 60q-122 21 -192.5 74t-70.5 131q0 41 21 77.5t57 63.5t84.5 43
t103.5 16q50 0 95 -13.5t80.5 -36.5t59 -55t29.5 -69q2 -9 -3.5 -16t-13.5 -9q-9 -2 -16.5 3.5t-9.5 14.5q-5 29 -24.5 54t-49 43t-67.5 28.5t-80 10.5q-46 0 -86.5 -12t-70.5 -33t-47.5 -49.5t-17.5 -60.5q0 -36 20 -63t52 -47t72.5 -32.5t81.5 -18.5h1q262 -51 262 -205
q0 -41 -21 -77.5t-57.5 -63.5t-85 -43t-103.5 -16zM548 531q-9 0 -15.5 6t-6.5 16q0 5 -0.5 9.5t-1.5 9.5q-2 9 3.5 16t14.5 9t16 -3.5t9 -14.5q3 -12 3 -26q0 -10 -6.5 -16t-15.5 -6z" />
    <glyph glyph-name="T" unicode="T" horiz-adv-x="494" 
d="M58 -13q-9 0 -15.5 6.5t-6.5 16.5v720q0 10 6.5 16t15.5 6h371q9 0 15.5 -6t6.5 -16q0 -9 -6.5 -15.5t-15.5 -6.5h-349v-698q0 -10 -6.5 -16.5t-15.5 -6.5z" />
    <glyph glyph-name="U" unicode="U" horiz-adv-x="546" 
d="M480 197q-9 0 -15.5 6.5t-6.5 15.5v512q0 9 6.5 15.5t15.5 6.5t15.5 -6.5t6.5 -15.5v-512q0 -9 -6.5 -15.5t-15.5 -6.5zM63 197q-9 0 -15.5 6.5t-6.5 15.5v512q0 9 6.5 15.5t15.5 6.5q10 0 16 -6.5t6 -15.5v-512q0 -9 -6 -15.5t-16 -6.5zM272 -12q-48 0 -90 18.5
t-73.5 50t-49.5 74.5t-18 91q0 9 6.5 15.5t15.5 6.5q10 0 16 -6.5t6 -15.5q0 -39 14.5 -74t40 -61t59.5 -41t73 -15q38 0 72 15t59.5 41t40 61t14.5 74q0 9 6.5 15.5t15.5 6.5t15.5 -6.5t6.5 -15.5q0 -48 -18 -91t-49.5 -74.5t-73.5 -50t-89 -18.5z" />
    <glyph glyph-name="V" unicode="V" horiz-adv-x="617" 
d="M308 -13q-15 0 -20 15l-249 723q-3 8 1 16t13 10q8 3 16 -1t11 -12l249 -723q3 -8 -1 -16t-13 -10q-4 -2 -7 -2zM308 -13q-1 0 -7 2q-8 2 -12 10t-1 16l249 723q2 8 10.5 12t16.5 1q9 -2 13 -10t1 -16l-249 -723q-5 -15 -21 -15z" />
    <glyph glyph-name="W" unicode="W" horiz-adv-x="965" 
d="M902 752q9 0 15.5 -6t6.5 -15v-506q0 -9 -6.5 -15.5t-15.5 -6.5t-15.5 6.5t-6.5 15.5v506q0 9 6.5 15t15.5 6zM481 752q9 0 15 -6t6 -15v-411q0 -10 -6 -16t-15 -6t-15.5 6t-6.5 16v411q0 9 6.5 15t15.5 6zM480 752q9 0 15.5 -6t6.5 -15v-522q0 -9 -6.5 -15.5t-15.5 -6.5
t-15.5 6.5t-6.5 15.5v522q0 9 6.5 15t15.5 6zM480 242q9 0 15 -6.5t6 -15.5q0 -39 15 -73.5t40.5 -60t60.5 -40.5t74 -15t73.5 15t60 40.5t40.5 60t15 73.5q0 9 6.5 15.5t15.5 6.5t15.5 -6.5t6.5 -15.5q0 -48 -18.5 -90.5t-50 -74t-74 -50t-90.5 -18.5t-90.5 18.5t-74 50
t-50 74t-18.5 90.5q0 9 6.5 15.5t15.5 6.5zM478 751q9 0 15 -6t6 -15v-510q0 -9 -6 -15.5t-15 -6.5t-15.5 6.5t-6.5 15.5v510q0 9 6.5 15t15.5 6zM63 751q9 0 15.5 -6t6.5 -15v-510q0 -9 -6.5 -15.5t-15.5 -6.5t-15.5 6.5t-6.5 15.5v510q0 9 6.5 15t15.5 6zM63 245
q9 0 15.5 -6.5t6.5 -15.5q0 -39 14.5 -73.5t39.5 -60.5t59 -41t72 -15q39 0 72.5 15t59 41t40 60.5t14.5 73.5q0 9 6.5 15.5t15.5 6.5t15 -6.5t6 -15.5q0 -48 -18 -90.5t-49 -74t-72.5 -50t-89.5 -18.5q-47 0 -89 18.5t-73 50t-49 74t-18 90.5q0 9 6.5 15.5t15.5 6.5z" />
    <glyph glyph-name="X" unicode="X" horiz-adv-x="555" 
d="M501 -12q-12 0 -18 10l-438 721q-5 8 -3 16.5t10 13.5t16.5 3t13.5 -10l438 -721q5 -8 3 -16.5t-10 -13.5q-6 -3 -12 -3zM54 -12q-6 0 -12 3q-8 5 -10 13.5t3 16.5l438 721q5 8 13.5 10t16.5 -3t10 -13.5t-3 -16.5l-438 -721q-6 -10 -18 -10z" />
    <glyph glyph-name="Y" unicode="Y" horiz-adv-x="538" 
d="M474 522q-9 0 -15 6t-6 15v188q0 9 6 15t15 6t15.5 -6t6.5 -15v-188q0 -9 -6.5 -15t-15.5 -6zM64 522q-9 0 -15.5 6t-6.5 15v188q0 9 6.5 15t15.5 6q8 0 14.5 -6t6.5 -15v-188q0 -9 -6.5 -15t-14.5 -6zM269 315q-47 0 -88.5 18t-72 49.5t-48.5 73.5t-18 90q0 9 6.5 15.5
t15.5 6.5q8 0 14.5 -6.5t6.5 -15.5q0 -39 14.5 -73t39.5 -59.5t58.5 -40.5t71.5 -15t71.5 15t58.5 40.5t39.5 59.5t14.5 73q0 9 6 15.5t15 6.5t15.5 -6.5t6.5 -15.5q0 -48 -18 -90t-48.5 -73.5t-72 -49.5t-88.5 -18zM270 -13q-9 0 -15.5 7t-6.5 16v309q0 9 6.5 15.5
t15.5 6.5t15 -6.5t6 -15.5v-309q0 -9 -6 -16t-15 -7z" />
    <glyph glyph-name="Z" unicode="Z" horiz-adv-x="512" 
d="M448 -13l-1 1l-390 2q-12 0 -19 10q-5 11 0 22l380 687h-357q-9 0 -15.5 6.5t-6.5 15.5t6.5 15t15.5 6h394q11 0 18 -10q6 -11 1 -21l-381 -689l355 -1q9 0 15.5 -7t5.5 -15q0 -9 -6.5 -15.5t-14.5 -6.5z" />
    <glyph glyph-name="a" unicode="a" horiz-adv-x="556" 
d="M70 -13q-9 0 -15.5 6.5t-6.5 15.5v512q0 9 6.5 15.5t15.5 6.5t15.5 -6.5t6.5 -15.5v-512q0 -9 -6.5 -15.5t-15.5 -6.5zM486 -13q-9 0 -15.5 6.5t-6.5 15.5v512q0 9 6.5 15.5t15.5 6.5t15.5 -6.5t6.5 -15.5v-512q0 -9 -6.5 -15.5t-15.5 -6.5zM486 496q-9 0 -15.5 6.5
t-6.5 15.5q0 39 -14.5 74t-40 61t-59 41t-72.5 15t-72.5 -15t-59 -41t-40 -61t-14.5 -74q0 -9 -6.5 -15.5t-15.5 -6.5t-15.5 6.5t-6.5 15.5q0 48 18 91t49.5 74.5t73 50t89.5 18.5t89.5 -18.5t73 -50t49.5 -74.5t18 -91q0 -9 -6.5 -15.5t-15.5 -6.5zM481 308h-403
q-9 0 -15.5 6.5t-6.5 15.5t6.5 15.5t15.5 6.5h403q9 0 15.5 -6.5t6.5 -15.5t-6.5 -15.5t-15.5 -6.5z" />
    <glyph glyph-name="b" unicode="b" horiz-adv-x="551" 
d="M307 708h-240q-9 0 -15.5 6.5t-6.5 15.5q0 10 6.5 16t15.5 6h240q10 0 16.5 -6t6.5 -16q0 -9 -6.5 -15.5t-16.5 -6.5zM307 348h-240q-9 0 -15.5 6.5t-6.5 15.5q0 10 6.5 16.5t15.5 6.5h240q10 0 16.5 -6.5t6.5 -16.5q0 -9 -6.5 -15.5t-16.5 -6.5zM304 348q-9 0 -15.5 6.5
t-6.5 15.5q0 10 6.5 16.5t15.5 6.5q33 0 61.5 12.5t50 33.5t34 49.5t12.5 61.5t-12.5 61.5t-34 50t-50 34t-61.5 12.5q-9 0 -15.5 6.5t-6.5 15.5q0 10 6.5 16t15.5 6q42 0 79 -16t64 -43t43 -64t16 -79t-16 -78.5t-43 -64t-64 -43.5t-79 -16zM307 347h-240q-9 0 -15.5 6.5
t-6.5 16.5q0 9 6.5 15.5t15.5 6.5h240q10 0 16.5 -6.5t6.5 -15.5q0 -10 -6.5 -16.5t-16.5 -6.5zM307 -13h-240q-9 0 -15.5 6.5t-6.5 16.5q0 9 6.5 15.5t15.5 6.5h240q10 0 16.5 -6.5t6.5 -15.5q0 -10 -6.5 -16.5t-16.5 -6.5zM304 -13q-9 0 -15.5 6.5t-6.5 16.5q0 9 6.5 15.5
t15.5 6.5q33 0 61.5 12.5t50 34t34 50t12.5 61.5t-12.5 61.5t-34 49.5t-50 33.5t-61.5 12.5q-9 0 -15.5 6.5t-6.5 16.5q0 9 6.5 15.5t15.5 6.5q42 0 79 -16t64 -43.5t43 -64t16 -78.5t-16 -79t-43 -64.5t-64 -43.5t-79 -16z" />
    <glyph glyph-name="c" unicode="c" horiz-adv-x="525" 
d="M292 -13q-57 0 -106.5 30t-87 82t-59 122t-21.5 149t21.5 148.5t59 121.5t87 82t106.5 30h1q55 0 104.5 -28t88.5 -82q5 -8 4 -17t-9 -14t-17 -4t-14 9q-32 45 -72.5 68.5t-84.5 23.5h-1q-47 0 -89 -26.5t-73.5 -72.5t-49.5 -107.5t-18 -131.5t18 -131.5t49.5 -107.5
t73.5 -72.5t89 -26.5q51 0 96 30t78 87q5 8 13.5 10.5t16.5 -2.5q18 -12 8 -31q-39 -66 -94 -102.5t-118 -36.5z" />
    <glyph glyph-name="d" unicode="d" horiz-adv-x="539" 
d="M64 -13q-9 0 -15.5 6.5t-6.5 15.5v722q0 9 6.5 15t15.5 6t15.5 -6t6.5 -15v-722q0 -9 -6.5 -15.5t-15.5 -6.5zM204 -13q-9 0 -15.5 6.5t-6.5 15.5q0 10 6.5 16t15.5 6q51 0 96.5 26.5t79.5 72.5t53.5 107.5t19.5 131.5t-19.5 131.5t-53.5 107.5t-79.5 72.5t-96.5 26.5
q-9 0 -15.5 6.5t-6.5 15.5t6.5 15.5t15.5 6.5q61 0 114 -30t93 -82t63 -121.5t23 -148.5t-23 -148.5t-63 -121.5t-93 -82t-114 -30zM218 708h-154q-9 0 -15.5 6.5t-6.5 15.5t6.5 15.5t15.5 6.5h154q9 0 15.5 -6.5t6.5 -15.5t-6.5 -15.5t-15.5 -6.5zM218 -13h-154
q-9 0 -15.5 6.5t-6.5 15.5q0 10 6.5 16t15.5 6h154q9 0 15.5 -6t6.5 -16q0 -9 -6.5 -15.5t-15.5 -6.5z" />
    <glyph glyph-name="e" unicode="e" horiz-adv-x="498" 
d="M65 -12q-9 0 -15.5 6t-6.5 16v720q0 10 6.5 16.5t15.5 6.5h371q10 0 16 -6.5t6 -16.5q0 -9 -6 -15.5t-16 -6.5h-349v-698q0 -22 -22 -22zM338 348h-257q-9 0 -15.5 6.5t-6.5 15.5t6.5 15.5t15.5 6.5h257q9 0 15.5 -6.5t6.5 -15.5t-6.5 -15.5t-15.5 -6.5zM436 -12h-371
q-9 0 -15.5 6t-6.5 16q0 9 6.5 15.5t15.5 6.5h371q10 0 16 -6.5t6 -15.5q0 -22 -22 -22z" />
    <glyph glyph-name="f" unicode="f" horiz-adv-x="494" 
d="M60 -12q-9 0 -15.5 6t-6.5 16v720q0 10 6.5 16.5t15.5 6.5h371q10 0 16.5 -6.5t6.5 -16.5q0 -9 -6.5 -15.5t-16.5 -6.5h-348v-698q0 -10 -6.5 -16t-16.5 -6zM345 348h-282q-9 0 -15.5 6.5t-6.5 15.5t6.5 15.5t15.5 6.5h282q9 0 15.5 -6.5t6.5 -15.5t-6.5 -15.5
t-15.5 -6.5z" />
    <glyph glyph-name="g" unicode="g" horiz-adv-x="620" 
d="M310 -12q-57 0 -107.5 30t-88 82t-59.5 121.5t-22 148.5t22 149t59.5 122t88 82t107.5 30q67 0 126.5 -42t98.5 -117q5 -8 1.5 -16.5t-11.5 -13.5t-16.5 -2t-13.5 11q-33 64 -82 99.5t-103 35.5q-48 0 -90.5 -26.5t-74 -72.5t-50 -107.5t-18.5 -131.5t18.5 -131.5
t50 -107.5t74 -72.5t90.5 -26.5q38 0 73.5 18t65 50t51.5 76.5t33 97.5q2 9 9.5 14.5t16.5 3.5t14.5 -10t3.5 -17q-13 -61 -39 -112t-61 -87.5t-78 -57t-89 -20.5zM555 248h-5q-9 2 -14 9.5t-3 16.5q7 36 9 74l-284 -3q-9 0 -15.5 6.5t-6.5 15.5q-1 9 5.5 15.5t16.5 6.5
l307 3q9 0 15 -6q7 -6 7 -16q0 -56 -10 -105q-5 -17 -22 -17z" />
    <glyph glyph-name="h" unicode="h" horiz-adv-x="557" 
d="M459 349h-370q-9 0 -15.5 6.5t-6.5 15.5t6.5 15.5t15.5 6.5h370q9 0 15.5 -6.5t6.5 -15.5t-6.5 -15.5t-15.5 -6.5zM482 -13q-9 0 -15.5 6.5t-6.5 16.5v720q0 10 6.5 16t15.5 6t15.5 -6t6.5 -16v-720q0 -10 -6.5 -16.5t-15.5 -6.5zM75 -13q-10 0 -16 6.5t-6 16.5v720
q0 22 22 22q9 0 15.5 -6t6.5 -16v-720q0 -10 -6.5 -16.5t-15.5 -6.5z" />
    <glyph glyph-name="i" unicode="i" horiz-adv-x="180" 
d="M90 -13q-9 0 -15.5 6.5t-6.5 16.5v720q0 10 6.5 16t15.5 6t15.5 -6t6.5 -16v-720q0 -10 -6.5 -16.5t-15.5 -6.5z" />
    <glyph glyph-name="j" unicode="j" horiz-adv-x="565" 
d="M493 238q-9 0 -15.5 6t-6.5 15v472q0 9 6.5 15.5t15.5 6.5t15.5 -6.5t6.5 -15.5v-472q0 -9 -6.5 -15t-15.5 -6zM282 -13q-48 0 -90.5 21.5t-74 59t-49.5 87t-18 106.5q0 9 6.5 15.5t15.5 6.5t15.5 -6.5t6.5 -15.5q0 -48 15 -89.5t40.5 -73t59.5 -49.5t73 -18t73.5 18
t60 49.5t40.5 73t15 89.5q0 9 6.5 15.5t15.5 6.5t15 -6.5t6 -15.5q0 -57 -18.5 -106.5t-50 -87t-73.5 -59t-90 -21.5z" />
    <glyph glyph-name="k" unicode="k" horiz-adv-x="544" 
d="M58 -13q-9 0 -15.5 6.5t-6.5 15.5v722q0 9 6.5 15t15.5 6t15.5 -6t6.5 -15v-722q0 -9 -6.5 -15.5t-15.5 -6.5zM454 -13q-11 0 -18 9l-280 364q-5 7 -4.5 16t8.5 14q8 6 16.5 5t14.5 -9l280 -363q6 -8 5 -17t-9 -14q-7 -5 -13 -5zM172 356q-4 0 -6 1q-9 2 -13 10t-2 17
q21 79 57 147t83 116q49 51 100.5 71.5t100.5 6.5q9 -2 13.5 -10t2.5 -16q-2 -9 -10 -13.5t-17 -2.5q-76 20 -159 -66q-43 -45 -76 -107.5t-53 -137.5q-5 -16 -21 -16z" />
    <glyph glyph-name="l" unicode="l" horiz-adv-x="494" 
d="M428 -15h-368q-9 0 -15.5 6t-6.5 16q0 9 6.5 15t15.5 6h368q9 0 15.5 -6t6.5 -15q0 -10 -6.5 -16t-15.5 -6zM60 -15q-9 0 -15.5 6.5t-6.5 15.5v721q0 9 6.5 15.5t15.5 6.5t15.5 -6.5t6.5 -15.5v-721q0 -9 -6.5 -15.5t-15.5 -6.5z" />
    <glyph glyph-name="m" unicode="m" horiz-adv-x="956" 
d="M59 -13q-9 0 -15.5 6.5t-6.5 15.5v506q0 9 6.5 15.5t15.5 6.5t15.5 -6.5t6.5 -15.5v-506q0 -9 -6.5 -15.5t-15.5 -6.5zM480 -13q-9 0 -15.5 6.5t-6.5 15.5v411q0 10 6.5 16t15.5 6t15.5 -6t6.5 -16v-411q0 -9 -6.5 -15.5t-15.5 -6.5zM481 -13q-9 0 -15.5 6.5t-6.5 15.5
v522q0 9 6.5 15.5t15.5 6.5t15.5 -6.5t6.5 -15.5v-522q0 -9 -6.5 -15.5t-15.5 -6.5zM481 498q-9 0 -15 6.5t-6 15.5q0 39 -15 73.5t-40.5 60t-60.5 40.5t-74 15t-73.5 -15t-60 -40.5t-40.5 -60t-15 -73.5q0 -9 -6.5 -15.5t-15.5 -6.5t-15.5 6.5t-6.5 15.5q0 48 18.5 90
t50 73.5t74 50t90.5 18.5t90.5 -18.5t74 -50t50 -73.5t18.5 -90q0 -9 -6.5 -15.5t-15.5 -6.5zM483 -11q-9 0 -15.5 6t-6.5 15v510q0 9 6.5 15.5t15.5 6.5t15.5 -6.5t6.5 -15.5v-510q0 -9 -6.5 -15t-15.5 -6zM898 -11q-9 0 -15.5 6t-6.5 15v510q0 9 6.5 15.5t15.5 6.5
t15.5 -6.5t6.5 -15.5v-510q0 -9 -6.5 -15t-15.5 -6zM898 495q-9 0 -15.5 6.5t-6.5 15.5q0 39 -14.5 73.5t-39.5 60.5t-59 41t-72 15q-39 0 -72.5 -15t-59 -41t-40 -60.5t-14.5 -73.5q0 -9 -6.5 -15.5t-15.5 -6.5t-15.5 6.5t-6.5 15.5q0 48 18 90.5t49.5 74t73 50t89.5 18.5
q47 0 89 -18.5t73 -50t49 -74t18 -90.5q0 -9 -6.5 -15.5t-15.5 -6.5z" />
    <glyph glyph-name="n" unicode="n" horiz-adv-x="550" 
d="M64 -13q-9 0 -15.5 6.5t-6.5 15.5v512q0 9 6.5 15.5t15.5 6.5t15.5 -6.5t6.5 -15.5v-512q0 -9 -6.5 -15.5t-15.5 -6.5zM480 -13q-9 0 -15.5 6.5t-6.5 15.5v512q0 9 6.5 15.5t15.5 6.5t15.5 -6.5t6.5 -15.5v-512q0 -9 -6.5 -15.5t-15.5 -6.5zM480 496q-9 0 -15.5 6.5
t-6.5 15.5q0 39 -14.5 74t-40 61t-59.5 41t-72 15q-39 0 -72.5 -15t-59 -41t-40 -61t-14.5 -74q0 -9 -6.5 -15.5t-15.5 -6.5t-15.5 6.5t-6.5 15.5q0 48 18 91t49.5 75t73 50.5t89.5 18.5t89.5 -18.5t73 -50.5t49.5 -75t18 -91q0 -9 -6.5 -15.5t-15.5 -6.5z" />
    <glyph glyph-name="o" unicode="o" horiz-adv-x="632" 
d="M316 -12q-57 0 -107.5 30t-88 82t-59.5 121.5t-22 148.5t22 149t59.5 122t88 82t107.5 30t107.5 -30t88 -82t59.5 -122t22 -149t-22 -148.5t-59.5 -121.5t-88 -82t-107.5 -30zM316 708q-48 0 -90.5 -26.5t-74 -72.5t-50 -107.5t-18.5 -131.5t18.5 -131.5t50 -107.5
t74 -72.5t90.5 -26.5t90.5 26.5t74 72.5t50 107.5t18.5 131.5t-18.5 131.5t-50 107.5t-74 72.5t-90.5 26.5z" />
    <glyph glyph-name="p" unicode="p" horiz-adv-x="538" 
d="M301 708h-240q-9 0 -15.5 6.5t-6.5 15.5q0 10 6.5 16.5t15.5 6.5h240q9 0 15.5 -6.5t6.5 -16.5q0 -9 -6.5 -15.5t-15.5 -6.5zM301 349h-240q-9 0 -15.5 6.5t-6.5 15.5t6.5 15.5t15.5 6.5h240q9 0 15.5 -6.5t6.5 -15.5t-6.5 -15.5t-15.5 -6.5zM298 349q-10 0 -16.5 6.5
t-6.5 15.5t6.5 15.5t16.5 6.5q32 0 60.5 12.5t50 34t34 50t12.5 61.5q0 32 -12.5 60.5t-34 50t-50 34t-60.5 12.5q-10 0 -16.5 6.5t-6.5 15.5q0 10 6.5 16.5t16.5 6.5q42 0 78.5 -16t63.5 -43.5t43 -64t16 -78.5t-16 -79t-43 -64t-63.5 -43t-78.5 -16zM61 -13
q-9 0 -15.5 6.5t-6.5 16.5v361q0 9 6.5 15.5t15.5 6.5t15.5 -6.5t6.5 -15.5v-361q0 -10 -6.5 -16.5t-15.5 -6.5z" />
    <glyph glyph-name="q" unicode="q" horiz-adv-x="562" 
d="M240 6q-60 0 -114 35t-92 101q-5 8 -3 16t10 13t16.5 2.5t13.5 -10.5q32 -54 76.5 -84t92.5 -30q46 0 87 26t72 71t48.5 105t17.5 128t-17.5 128t-48.5 105t-72 71t-87 26q-43 0 -82.5 -23t-71.5 -67q-5 -8 -13.5 -9t-16.5 4q-7 5 -8 14t4 16q38 53 86 81t102 28
q55 0 104 -29.5t85.5 -80.5t57.5 -119t21 -145t-21 -145t-57.5 -118.5t-85.5 -80t-104 -29.5zM537 -12q-9 0 -15 6l-276 275q-6 7 -6 15.5t6 15.5q7 6 15.5 6t15.5 -6l275 -276q7 -6 7 -15t-7 -15q-6 -6 -15 -6z" />
    <glyph glyph-name="r" unicode="r" horiz-adv-x="546" 
d="M304 708h-239q-9 0 -15.5 6.5t-6.5 15.5q0 10 6.5 16t15.5 6h239q10 0 16.5 -6t6.5 -16q0 -9 -6.5 -15.5t-16.5 -6.5zM304 349h-45q-9 0 -15.5 6.5t-6.5 15.5q0 10 6.5 16.5t15.5 6.5h45q10 0 16.5 -6.5t6.5 -16.5q0 -9 -6.5 -15.5t-16.5 -6.5zM301 349q-9 0 -15.5 6.5
t-6.5 15.5q0 10 6.5 16.5t15.5 6.5q33 0 61.5 12.5t49.5 33.5t33.5 49.5t12.5 61.5t-12.5 61.5t-33.5 49.5t-49.5 33.5t-61.5 12.5q-9 0 -15.5 6.5t-6.5 15.5q0 10 6.5 16t15.5 6q42 0 78.5 -16t64 -43t43.5 -63.5t16 -78.5t-16 -78.5t-43.5 -64t-64 -43.5t-78.5 -16z
M458 -13q-12 0 -19 12l-199 362q-5 8 -2 16.5t11 13.5t16.5 2t13.5 -11l199 -362q5 -8 2 -16.5t-11 -13.5q-5 -3 -11 -3z" />
    <glyph glyph-name="s" unicode="s" horiz-adv-x="607" 
d="M303 -13q-55 0 -103.5 16t-84.5 43t-57 63.5t-21 77.5q0 10 6.5 16t15.5 6t15.5 -6t6.5 -16q0 -32 17.5 -60.5t47.5 -49.5t70.5 -33t86.5 -12t86.5 12t71 33t48 49.5t17.5 60.5q0 60 -55.5 101t-170.5 60q-122 21 -192.5 74t-70.5 131q0 41 21 77.5t57 63.5t84.5 43
t103.5 16q50 0 95 -13.5t80.5 -36.5t59 -55t29.5 -69q2 -9 -3.5 -16t-13.5 -9q-9 -2 -16.5 3.5t-9.5 14.5q-5 29 -24.5 54t-49 43t-67.5 28.5t-80 10.5q-46 0 -86.5 -12t-70.5 -33t-47.5 -49.5t-17.5 -60.5q0 -36 20 -63t52 -47t72.5 -32.5t81.5 -18.5h1q262 -51 262 -205
q0 -41 -21 -77.5t-57.5 -63.5t-85 -43t-103.5 -16zM548 531q-9 0 -15.5 6t-6.5 16q0 5 -0.5 9.5t-1.5 9.5q-2 9 3.5 16t14.5 9t16 -3.5t9 -14.5q3 -12 3 -26q0 -10 -6.5 -16t-15.5 -6z" />
    <glyph glyph-name="t" unicode="t" horiz-adv-x="494" 
d="M58 -13q-9 0 -15.5 6.5t-6.5 16.5v720q0 10 6.5 16t15.5 6h371q9 0 15.5 -6t6.5 -16q0 -9 -6.5 -15.5t-15.5 -6.5h-349v-698q0 -10 -6.5 -16.5t-15.5 -6.5z" />
    <glyph glyph-name="u" unicode="u" horiz-adv-x="546" 
d="M480 197q-9 0 -15.5 6.5t-6.5 15.5v512q0 9 6.5 15.5t15.5 6.5t15.5 -6.5t6.5 -15.5v-512q0 -9 -6.5 -15.5t-15.5 -6.5zM63 197q-9 0 -15.5 6.5t-6.5 15.5v512q0 9 6.5 15.5t15.5 6.5q10 0 16 -6.5t6 -15.5v-512q0 -9 -6 -15.5t-16 -6.5zM272 -12q-48 0 -90 18.5
t-73.5 50t-49.5 74.5t-18 91q0 9 6.5 15.5t15.5 6.5q10 0 16 -6.5t6 -15.5q0 -39 14.5 -74t40 -61t59.5 -41t73 -15q38 0 72 15t59.5 41t40 61t14.5 74q0 9 6.5 15.5t15.5 6.5t15.5 -6.5t6.5 -15.5q0 -48 -18 -91t-49.5 -74.5t-73.5 -50t-89 -18.5z" />
    <glyph glyph-name="v" unicode="v" horiz-adv-x="617" 
d="M308 -13q-15 0 -20 15l-249 723q-3 8 1 16t13 10q8 3 16 -1t11 -12l249 -723q3 -8 -1 -16t-13 -10q-4 -2 -7 -2zM308 -13q-1 0 -7 2q-8 2 -12 10t-1 16l249 723q2 8 10.5 12t16.5 1q9 -2 13 -10t1 -16l-249 -723q-5 -15 -21 -15z" />
    <glyph glyph-name="w" unicode="w" horiz-adv-x="965" 
d="M902 752q9 0 15.5 -6t6.5 -15v-506q0 -9 -6.5 -15.5t-15.5 -6.5t-15.5 6.5t-6.5 15.5v506q0 9 6.5 15t15.5 6zM481 752q9 0 15 -6t6 -15v-411q0 -10 -6 -16t-15 -6t-15.5 6t-6.5 16v411q0 9 6.5 15t15.5 6zM480 752q9 0 15.5 -6t6.5 -15v-522q0 -9 -6.5 -15.5t-15.5 -6.5
t-15.5 6.5t-6.5 15.5v522q0 9 6.5 15t15.5 6zM480 242q9 0 15 -6.5t6 -15.5q0 -39 15 -73.5t40.5 -60t60.5 -40.5t74 -15t73.5 15t60 40.5t40.5 60t15 73.5q0 9 6.5 15.5t15.5 6.5t15.5 -6.5t6.5 -15.5q0 -48 -18.5 -90.5t-50 -74t-74 -50t-90.5 -18.5t-90.5 18.5t-74 50
t-50 74t-18.5 90.5q0 9 6.5 15.5t15.5 6.5zM478 751q9 0 15 -6t6 -15v-510q0 -9 -6 -15.5t-15 -6.5t-15.5 6.5t-6.5 15.5v510q0 9 6.5 15t15.5 6zM63 751q9 0 15.5 -6t6.5 -15v-510q0 -9 -6.5 -15.5t-15.5 -6.5t-15.5 6.5t-6.5 15.5v510q0 9 6.5 15t15.5 6zM63 245
q9 0 15.5 -6.5t6.5 -15.5q0 -39 14.5 -73.5t39.5 -60.5t59 -41t72 -15q39 0 72.5 15t59 41t40 60.5t14.5 73.5q0 9 6.5 15.5t15.5 6.5t15 -6.5t6 -15.5q0 -48 -18 -90.5t-49 -74t-72.5 -50t-89.5 -18.5q-47 0 -89 18.5t-73 50t-49 74t-18 90.5q0 9 6.5 15.5t15.5 6.5z" />
    <glyph glyph-name="x" unicode="x" horiz-adv-x="555" 
d="M501 -12q-12 0 -18 10l-438 721q-5 8 -3 16.5t10 13.5t16.5 3t13.5 -10l438 -721q5 -8 3 -16.5t-10 -13.5q-6 -3 -12 -3zM54 -12q-6 0 -12 3q-8 5 -10 13.5t3 16.5l438 721q5 8 13.5 10t16.5 -3t10 -13.5t-3 -16.5l-438 -721q-6 -10 -18 -10z" />
    <glyph glyph-name="y" unicode="y" horiz-adv-x="538" 
d="M474 522q-9 0 -15 6t-6 15v188q0 9 6 15t15 6t15.5 -6t6.5 -15v-188q0 -9 -6.5 -15t-15.5 -6zM64 522q-9 0 -15.5 6t-6.5 15v188q0 9 6.5 15t15.5 6q8 0 14.5 -6t6.5 -15v-188q0 -9 -6.5 -15t-14.5 -6zM269 315q-47 0 -88.5 18t-72 49.5t-48.5 73.5t-18 90q0 9 6.5 15.5
t15.5 6.5q8 0 14.5 -6.5t6.5 -15.5q0 -39 14.5 -73t39.5 -59.5t58.5 -40.5t71.5 -15t71.5 15t58.5 40.5t39.5 59.5t14.5 73q0 9 6 15.5t15 6.5t15.5 -6.5t6.5 -15.5q0 -48 -18 -90t-48.5 -73.5t-72 -49.5t-88.5 -18zM270 -13q-9 0 -15.5 7t-6.5 16v309q0 9 6.5 15.5
t15.5 6.5t15 -6.5t6 -15.5v-309q0 -9 -6 -16t-15 -7z" />
    <glyph glyph-name="z" unicode="z" horiz-adv-x="512" 
d="M448 -13l-1 1l-390 2q-12 0 -19 10q-5 11 0 22l380 687h-357q-9 0 -15.5 6.5t-6.5 15.5t6.5 15t15.5 6h394q11 0 18 -10q6 -11 1 -21l-381 -689l355 -1q9 0 15.5 -7t5.5 -15q0 -9 -6.5 -15.5t-14.5 -6.5z" />
  </font>
</defs>
</svg>
